<svg xmlns="http://www.w3.org/2000/svg" width="512" height="512" viewBox="0 0 512 512">
  <defs>
    <radialGradient id="bg" cx="50%" cy="36%" r="78%">
      <stop offset="0%" stop-color="#2a1530"/>
      <stop offset="60%" stop-color="#120a18"/>
      <stop offset="100%" stop-color="#070a10"/>
    </radialGradient>
    <linearGradient id="flame" x1="0" y1="1" x2="0" y2="0">
      <stop offset="0%" stop-color="#ff2e2e"/>
      <stop offset="50%" stop-color="#ff7a18"/>
      <stop offset="100%" stop-color="#ffd56b"/>
    </linearGradient>
  </defs>
  <rect width="512" height="512" fill="url(#bg)"/>
  <!-- outer flame -->
  <path d="M256 92
           C 332 174, 366 248, 344 322
           C 325 386, 270 416, 256 416
           C 242 416, 187 386, 168 322
           C 146 248, 196 216, 218 144
           C 232 196, 244 196, 256 92 Z"
        fill="url(#flame)"/>
  <!-- inner flame -->
  <path d="M256 196
           C 292 244, 306 280, 296 326
           C 287 364, 270 384, 256 384
           C 242 384, 225 364, 216 326
           C 206 280, 234 256, 256 196 Z"
        fill="#ffe7a6" opacity="0.9"/>
  <!-- embers -->
  <circle cx="160" cy="150" r="7" fill="#ffae4a" opacity="0.85"/>
  <circle cx="360" cy="170" r="9" fill="#ff7a18" opacity="0.8"/>
  <circle cx="378" cy="300" r="6" fill="#ffd56b" opacity="0.8"/>
  <circle cx="140" cy="300" r="6" fill="#ff7a18" opacity="0.7"/>
</svg>
